#N canvas 319 74 844 649 10;
#X obj 93 152 comport 4 38400;
#X msg 97 87 open 4;
#X msg 102 114 close;
#X msg 189 98 1;
#X obj 189 121 t f b;
#X obj 189 52 tgl 15 0 empty empty empty 17 7 0 10 -262144 -1 -1 0
127;
#N canvas 37 306 846 465 unpack 0;
#X obj 177 59 inlet;
#X obj 177 117 list prepend;
#X obj 260 117 t l;
#X obj 328 274 picoData 0;
#X obj 261 271 picoData 1;
#X obj 194 270 picoData 2;
#X obj 55 271 picoData 3;
#X obj 124 270 picoData 4;
#X obj 425 272 picoData 5;
#X obj 496 270 picoData 6;
#X obj 567 272 picoData 7;
#X obj 246 57 inlet;
#X text 290 57 start a new list everytime data is requested;
#X text 160 39 from comport;
#X obj 328 297 outlet;
#X obj 261 294 outlet;
#X obj 193 293 outlet;
#X obj 55 296 outlet;
#X obj 124 297 outlet;
#X obj 425 296 outlet;
#X obj 496 294 outlet;
#X obj 567 300 outlet;
#X obj 189 154 unpack f f f f f f f f f f f f f f f f f f;
#X text 55 316 button;
#X text 124 320 A;
#X text 198 317 B;
#X text 259 317 C;
#X text 329 321 D;
#X text 429 319 light;
#X text 500 317 mic;
#X text 572 321 slider;
#X connect 0 0 1 0;
#X connect 1 0 2 0;
#X connect 1 0 22 0;
#X connect 2 0 1 1;
#X connect 3 0 14 0;
#X connect 4 0 15 0;
#X connect 5 0 16 0;
#X connect 6 0 17 0;
#X connect 7 0 18 0;
#X connect 8 0 19 0;
#X connect 9 0 20 0;
#X connect 10 0 21 0;
#X connect 11 0 1 1;
#X connect 22 2 3 0;
#X connect 22 3 3 1;
#X connect 22 4 4 0;
#X connect 22 5 4 1;
#X connect 22 6 5 0;
#X connect 22 7 5 1;
#X connect 22 8 6 0;
#X connect 22 9 6 1;
#X connect 22 10 7 0;
#X connect 22 11 7 1;
#X connect 22 12 8 0;
#X connect 22 13 8 1;
#X connect 22 14 9 0;
#X connect 22 15 9 1;
#X connect 22 16 10 0;
#X connect 22 17 10 1;
#X restore 93 186 pd unpack pico packet;
#X floatatom 27 203 5 0 0 0 - - -;
#X floatatom 79 314 5 0 0 0 - - -;
#X floatatom 114 314 5 0 0 0 - - -;
#X floatatom 149 314 5 0 0 0 - - -;
#X floatatom 184 314 5 0 0 0 - - -;
#X floatatom 190 259 5 0 0 0 - - -;
#X floatatom 253 261 5 0 0 0 - - -;
#X floatatom 323 258 5 0 0 0 - - -;
#X text 24 267 button;
#X text 82 329 A;
#X text 119 329 B;
#X text 152 330 C;
#X text 188 330 D;
#X text 324 275 slider;
#X text 190 276 light;
#X text 252 277 microphone;
#X text 230 99 every time a 1 is sent;
#X text 230 112 picoboard reports its data;
#X msg 84 63 devices;
#X text 212 51 <- request data;
#X obj 27 227 > 512;
#X obj 26 248 tgl 15 0 empty empty empty 17 7 0 10 -262144 -1 -1 0
1;
#X text 12 603 by Jiffer Harriman;
#X text 10 617 open-source;
#X text 111 12 I talk to the PicoBoard;
#X obj 189 75 metro 50;
#X obj 305 468 osc~;
#X obj 255 590 dac~;
#X obj 290 426 osc~;
#X obj 290 519 *~;
#X obj 26 405 sel 0 1;
#X obj 258 556 *~;
#X obj 45 493 line~;
#X msg 26 430 1 20;
#X msg 45 467 0 100;
#X text 325 519 Amplitude modulation;
#X text 87 467 go to 0 in 100 ms;
#X text 38 385 the button turns sound on/off;
#X text 69 431 go to 1 (full volume) in 20 ms;
#X text 331 424 two oscillators to make sound;
#X text 459 85 This demo uses the button \, slider and;
#X text 458 102 light sensor on the PicoBoard;
#X connect 0 0 6 0;
#X connect 1 0 0 0;
#X connect 2 0 0 0;
#X connect 3 0 4 0;
#X connect 4 0 0 0;
#X connect 4 1 6 1;
#X connect 5 0 32 0;
#X connect 6 0 7 0;
#X connect 6 1 8 0;
#X connect 6 2 9 0;
#X connect 6 3 10 0;
#X connect 6 4 11 0;
#X connect 6 5 12 0;
#X connect 6 6 13 0;
#X connect 6 7 14 0;
#X connect 7 0 27 0;
#X connect 12 0 35 0;
#X connect 14 0 33 0;
#X connect 25 0 0 0;
#X connect 27 0 28 0;
#X connect 28 0 37 0;
#X connect 32 0 3 0;
#X connect 33 0 36 1;
#X connect 35 0 36 0;
#X connect 36 0 38 1;
#X connect 37 0 40 0;
#X connect 37 1 41 0;
#X connect 38 0 34 0;
#X connect 38 0 34 1;
#X connect 39 0 38 0;
#X connect 40 0 39 0;
#X connect 41 0 39 0;
